<svg width="9" height="8" viewBox="0 0 9 8" fill="none" xmlns="http://www.w3.org/2000/svg">
<path d="M4.5 7.88672L3.89453 7.33984C3.20443 6.71484 2.70312 6.2526 2.39062 5.95312C2.07812 5.65365 1.72656 5.28255 1.33594 4.83984C0.958333 4.39714 0.697917 4 0.554688 3.64844C0.411458 3.28385 0.339844 2.91276 0.339844 2.53516C0.339844 1.89714 0.554688 1.35677 0.984375 0.914062C1.42708 0.471354 1.97396 0.25 2.625 0.25C3.38021 0.25 4.00521 0.542969 4.5 1.12891C4.99479 0.542969 5.61979 0.25 6.375 0.25C7.02604 0.25 7.56641 0.471354 7.99609 0.914062C8.4388 1.35677 8.66016 1.89714 8.66016 2.53516C8.66016 3.04297 8.49089 3.57031 8.15234 4.11719C7.8138 4.66406 7.44271 5.13932 7.03906 5.54297C6.64844 5.94661 6.00391 6.55208 5.10547 7.35938L4.5 7.88672Z" fill="url(#paint0_linear)"/>
<defs>
<linearGradient id="paint0_linear" x1="4.5" y1="0" x2="4.5" y2="8" gradientUnits="userSpaceOnUse">
<stop stop-color="#BC9CFF"/>
<stop offset="1" stop-color="#8BA4F9"/>
</linearGradient>
</defs>
</svg>
